<svg width="512" height="512" viewBox="0 0 512 512" fill="none" xmlns="http://www.w3.org/2000/svg" xmlns:xlink="http://www.w3.org/1999/xlink" class=""><rect id="«r38»" width="512" height="512" x="0" y="0" rx="256" fill="url(#«r39»)" stroke="#FFFFFF" stroke-width="0" stroke-opacity="100%" paint-order="stroke"></rect><clipPath id="clip"><use xlink:href="#«r38»"></use></clipPath><defs><linearGradient id="«r39»" gradientUnits="userSpaceOnUse" gradientTransform="rotate(90)" style="transform-origin: center center;"><stop stop-color="#695BF8"></stop><stop offset="1" stop-color="#131308"></stop></linearGradient><radialGradient id="«r3a»" cx="0" cy="0" r="1" gradientUnits="userSpaceOnUse" gradientTransform="translate(256) rotate(90) scale(512)"><stop stop-color="white"></stop><stop offset="1" stop-color="white" stop-opacity="0"></stop></radialGradient></defs><svg xmlns="http://www.w3.org/2000/svg" fill="none" viewBox="0 0 16 16" width="352" height="352" x="80" y="80" alignment-baseline="middle" style="color: rgb(255, 255, 255);"><g clip-path="url(#brand-google_svg__a)"><path fill="currentColor" d="M5.648.764a7.658 7.658 0 0 0 .524 14.632 8.182 8.182 0 0 0 3.917.042 6.914 6.914 0 0 0 3.134-1.629 6.951 6.951 0 0 0 1.936-3.178 8.996 8.996 0 0 0 .195-4.064H8.151v2.988h4.172a3.597 3.597 0 0 1-1.532 2.362 4.377 4.377 0 0 1-1.686.666 4.994 4.994 0 0 1-1.828 0 4.496 4.496 0 0 1-1.7-.742 4.756 4.756 0 0 1-1.755-2.35 4.636 4.636 0 0 1 0-2.981 4.75 4.75 0 0 1 1.111-1.804 4.498 4.498 0 0 1 4.532-1.184c.619.19 1.184.521 1.651.968.47-.468.94-.937 1.409-1.407.242-.253.506-.494.744-.753A7.41 7.41 0 0 0 10.805.81 7.745 7.745 0 0 0 5.648.764Z"></path></g><defs><clipPath id="brand-google_svg__a"><rect fill="currentColor"></rect></clipPath></defs></svg></svg>